<mxfile host="app.diagrams.net" modified="2024-05-03T02:21:12.952Z" agent="Mozilla/5.0 (Macintosh; Intel Mac OS X 10_15_7) AppleWebKit/537.36 (KHTML, like Gecko) Chrome/123.0.0.0 Safari/537.36" etag="IEhCaeRDHVeWFJ0jtUe9" version="24.3.0" type="device">
  <diagram name="Page-1" id="2YBvvXClWsGukQMizWep">
    <mxGraphModel dx="954" dy="640" grid="1" gridSize="10" guides="1" tooltips="1" connect="1" arrows="1" fold="1" page="1" pageScale="1" pageWidth="850" pageHeight="1100" math="0" shadow="0">
      <root>
        <mxCell id="0" />
        <mxCell id="1" parent="0" />
        <mxCell id="aM9ryv3xv72pqoxQDRHE-1" value="Menu" style="shape=umlLifeline;perimeter=lifelinePerimeter;whiteSpace=wrap;html=1;container=0;dropTarget=0;collapsible=0;recursiveResize=0;outlineConnect=0;portConstraint=eastwest;newEdgeStyle={&quot;edgeStyle&quot;:&quot;elbowEdgeStyle&quot;,&quot;elbow&quot;:&quot;vertical&quot;,&quot;curved&quot;:0,&quot;rounded&quot;:0};" parent="1" vertex="1">
          <mxGeometry x="160" y="40" width="100" height="530" as="geometry" />
        </mxCell>
        <mxCell id="aM9ryv3xv72pqoxQDRHE-2" value="" style="html=1;points=[];perimeter=orthogonalPerimeter;outlineConnect=0;targetShapes=umlLifeline;portConstraint=eastwest;newEdgeStyle={&quot;edgeStyle&quot;:&quot;elbowEdgeStyle&quot;,&quot;elbow&quot;:&quot;vertical&quot;,&quot;curved&quot;:0,&quot;rounded&quot;:0};" parent="aM9ryv3xv72pqoxQDRHE-1" vertex="1">
          <mxGeometry x="45" y="70" width="10" height="440" as="geometry" />
        </mxCell>
        <mxCell id="aM9ryv3xv72pqoxQDRHE-4" value="" style="html=1;points=[];perimeter=orthogonalPerimeter;outlineConnect=0;targetShapes=umlLifeline;portConstraint=eastwest;newEdgeStyle={&quot;edgeStyle&quot;:&quot;elbowEdgeStyle&quot;,&quot;elbow&quot;:&quot;vertical&quot;,&quot;curved&quot;:0,&quot;rounded&quot;:0};" parent="aM9ryv3xv72pqoxQDRHE-1" vertex="1">
          <mxGeometry x="50" y="120" width="10" height="80" as="geometry" />
        </mxCell>
        <mxCell id="aM9ryv3xv72pqoxQDRHE-5" value="IP Scan" style="shape=umlLifeline;perimeter=lifelinePerimeter;whiteSpace=wrap;html=1;container=0;dropTarget=0;collapsible=0;recursiveResize=0;outlineConnect=0;portConstraint=eastwest;newEdgeStyle={&quot;edgeStyle&quot;:&quot;elbowEdgeStyle&quot;,&quot;elbow&quot;:&quot;vertical&quot;,&quot;curved&quot;:0,&quot;rounded&quot;:0};" parent="1" vertex="1">
          <mxGeometry x="400" y="40" width="100" height="250" as="geometry" />
        </mxCell>
        <mxCell id="aM9ryv3xv72pqoxQDRHE-6" value="" style="html=1;points=[];perimeter=orthogonalPerimeter;outlineConnect=0;targetShapes=umlLifeline;portConstraint=eastwest;newEdgeStyle={&quot;edgeStyle&quot;:&quot;elbowEdgeStyle&quot;,&quot;elbow&quot;:&quot;vertical&quot;,&quot;curved&quot;:0,&quot;rounded&quot;:0};" parent="aM9ryv3xv72pqoxQDRHE-5" vertex="1">
          <mxGeometry x="45" y="80" width="10" height="70" as="geometry" />
        </mxCell>
        <mxCell id="aM9ryv3xv72pqoxQDRHE-7" value="&lt;font style=&quot;font-size: 12px;&quot;&gt;ScanPrompt()&lt;/font&gt;" style="html=1;verticalAlign=bottom;endArrow=block;edgeStyle=elbowEdgeStyle;elbow=vertical;curved=0;rounded=0;" parent="1" source="aM9ryv3xv72pqoxQDRHE-2" target="aM9ryv3xv72pqoxQDRHE-6" edge="1">
          <mxGeometry relative="1" as="geometry">
            <mxPoint x="195" y="130" as="sourcePoint" />
            <Array as="points">
              <mxPoint x="240" y="120" />
            </Array>
            <mxPoint as="offset" />
          </mxGeometry>
        </mxCell>
        <mxCell id="aM9ryv3xv72pqoxQDRHE-10" value="&lt;font style=&quot;font-size: 12px;&quot;&gt;return machines&lt;/font&gt;" style="html=1;verticalAlign=bottom;endArrow=open;dashed=1;endSize=8;edgeStyle=elbowEdgeStyle;elbow=vertical;curved=0;rounded=0;" parent="1" edge="1">
          <mxGeometry relative="1" as="geometry">
            <mxPoint x="225" y="200" as="targetPoint" />
            <Array as="points">
              <mxPoint x="355" y="200" />
              <mxPoint x="295" y="150" />
              <mxPoint x="175" y="230" />
            </Array>
            <mxPoint x="444.5" y="200" as="sourcePoint" />
          </mxGeometry>
        </mxCell>
        <mxCell id="d2UCMd0wUcQvDNayt9kj-1" value="User" style="shape=umlLifeline;perimeter=lifelinePerimeter;whiteSpace=wrap;html=1;container=0;dropTarget=0;collapsible=0;recursiveResize=0;outlineConnect=0;portConstraint=eastwest;newEdgeStyle={&quot;edgeStyle&quot;:&quot;elbowEdgeStyle&quot;,&quot;elbow&quot;:&quot;vertical&quot;,&quot;curved&quot;:0,&quot;rounded&quot;:0};" parent="1" vertex="1">
          <mxGeometry x="20" y="40" width="100" height="570" as="geometry" />
        </mxCell>
        <mxCell id="d2UCMd0wUcQvDNayt9kj-2" value="" style="html=1;points=[];perimeter=orthogonalPerimeter;outlineConnect=0;targetShapes=umlLifeline;portConstraint=eastwest;newEdgeStyle={&quot;edgeStyle&quot;:&quot;elbowEdgeStyle&quot;,&quot;elbow&quot;:&quot;vertical&quot;,&quot;curved&quot;:0,&quot;rounded&quot;:0};" parent="d2UCMd0wUcQvDNayt9kj-1" vertex="1">
          <mxGeometry x="45" y="80" width="10" height="170" as="geometry" />
        </mxCell>
        <mxCell id="d2UCMd0wUcQvDNayt9kj-3" value="call" style="html=1;verticalAlign=bottom;startArrow=oval;endArrow=block;startSize=8;edgeStyle=elbowEdgeStyle;elbow=vertical;curved=0;rounded=0;" parent="1" edge="1">
          <mxGeometry relative="1" as="geometry">
            <mxPoint x="10" y="110" as="sourcePoint" />
            <mxPoint x="70" y="110" as="targetPoint" />
            <Array as="points">
              <mxPoint x="25" y="110" />
            </Array>
          </mxGeometry>
        </mxCell>
        <mxCell id="d2UCMd0wUcQvDNayt9kj-4" value="&lt;font style=&quot;font-size: 12px;&quot;&gt;Pick option&lt;/font&gt;" style="html=1;verticalAlign=bottom;startArrow=oval;endArrow=block;startSize=8;edgeStyle=elbowEdgeStyle;elbow=vertical;curved=0;rounded=0;" parent="1" source="d2UCMd0wUcQvDNayt9kj-2" edge="1" target="aM9ryv3xv72pqoxQDRHE-2">
          <mxGeometry relative="1" as="geometry">
            <mxPoint x="225" y="120" as="sourcePoint" />
            <mxPoint x="220" y="120" as="targetPoint" />
            <Array as="points">
              <mxPoint x="200" y="120" />
            </Array>
          </mxGeometry>
        </mxCell>
        <mxCell id="d2UCMd0wUcQvDNayt9kj-9" value="OR" style="text;html=1;align=center;verticalAlign=middle;whiteSpace=wrap;rounded=0;" parent="1" vertex="1">
          <mxGeometry x="500" y="50" width="40" height="20" as="geometry" />
        </mxCell>
        <mxCell id="d2UCMd0wUcQvDNayt9kj-10" value="Ports" style="shape=umlLifeline;perimeter=lifelinePerimeter;whiteSpace=wrap;html=1;container=0;dropTarget=0;collapsible=0;recursiveResize=0;outlineConnect=0;portConstraint=eastwest;newEdgeStyle={&quot;edgeStyle&quot;:&quot;elbowEdgeStyle&quot;,&quot;elbow&quot;:&quot;vertical&quot;,&quot;curved&quot;:0,&quot;rounded&quot;:0};" parent="1" vertex="1">
          <mxGeometry x="540" y="40" width="100" height="340" as="geometry" />
        </mxCell>
        <mxCell id="d2UCMd0wUcQvDNayt9kj-11" value="" style="html=1;points=[];perimeter=orthogonalPerimeter;outlineConnect=0;targetShapes=umlLifeline;portConstraint=eastwest;newEdgeStyle={&quot;edgeStyle&quot;:&quot;elbowEdgeStyle&quot;,&quot;elbow&quot;:&quot;vertical&quot;,&quot;curved&quot;:0,&quot;rounded&quot;:0};" parent="d2UCMd0wUcQvDNayt9kj-10" vertex="1">
          <mxGeometry x="45" y="80" width="10" height="230" as="geometry" />
        </mxCell>
        <mxCell id="d2UCMd0wUcQvDNayt9kj-12" value="OR" style="text;html=1;align=center;verticalAlign=middle;whiteSpace=wrap;rounded=0;" parent="1" vertex="1">
          <mxGeometry x="665" y="50" width="40" height="20" as="geometry" />
        </mxCell>
        <mxCell id="d2UCMd0wUcQvDNayt9kj-13" value="Exploit" style="shape=umlLifeline;perimeter=lifelinePerimeter;whiteSpace=wrap;html=1;container=0;dropTarget=0;collapsible=0;recursiveResize=0;outlineConnect=0;portConstraint=eastwest;newEdgeStyle={&quot;edgeStyle&quot;:&quot;elbowEdgeStyle&quot;,&quot;elbow&quot;:&quot;vertical&quot;,&quot;curved&quot;:0,&quot;rounded&quot;:0};" parent="1" vertex="1">
          <mxGeometry x="780" y="40" width="100" height="560" as="geometry" />
        </mxCell>
        <mxCell id="d2UCMd0wUcQvDNayt9kj-14" value="" style="html=1;points=[];perimeter=orthogonalPerimeter;outlineConnect=0;targetShapes=umlLifeline;portConstraint=eastwest;newEdgeStyle={&quot;edgeStyle&quot;:&quot;elbowEdgeStyle&quot;,&quot;elbow&quot;:&quot;vertical&quot;,&quot;curved&quot;:0,&quot;rounded&quot;:0};" parent="d2UCMd0wUcQvDNayt9kj-13" vertex="1">
          <mxGeometry x="45" y="80" width="10" height="440" as="geometry" />
        </mxCell>
        <mxCell id="l-pNRI6O7NmP5uDZJ6IB-3" value="Machines" style="text;html=1;align=center;verticalAlign=middle;whiteSpace=wrap;rounded=0;" parent="1" vertex="1">
          <mxGeometry x="180" y="310" width="140" height="20" as="geometry" />
        </mxCell>
        <mxCell id="l-pNRI6O7NmP5uDZJ6IB-4" value="Vulnerabilties" style="shape=umlLifeline;perimeter=lifelinePerimeter;whiteSpace=wrap;html=1;container=0;dropTarget=0;collapsible=0;recursiveResize=0;outlineConnect=0;portConstraint=eastwest;newEdgeStyle={&quot;edgeStyle&quot;:&quot;elbowEdgeStyle&quot;,&quot;elbow&quot;:&quot;vertical&quot;,&quot;curved&quot;:0,&quot;rounded&quot;:0};" parent="1" vertex="1">
          <mxGeometry x="660" y="40" width="100" height="420" as="geometry" />
        </mxCell>
        <mxCell id="l-pNRI6O7NmP5uDZJ6IB-5" value="" style="html=1;points=[];perimeter=orthogonalPerimeter;outlineConnect=0;targetShapes=umlLifeline;portConstraint=eastwest;newEdgeStyle={&quot;edgeStyle&quot;:&quot;elbowEdgeStyle&quot;,&quot;elbow&quot;:&quot;vertical&quot;,&quot;curved&quot;:0,&quot;rounded&quot;:0};" parent="l-pNRI6O7NmP5uDZJ6IB-4" vertex="1">
          <mxGeometry x="45" y="80" width="10" height="310" as="geometry" />
        </mxCell>
        <mxCell id="l-pNRI6O7NmP5uDZJ6IB-9" value="Exploit Machine&lt;div&gt;[Machines,vulnerabilties]&lt;/div&gt;" style="text;html=1;align=center;verticalAlign=middle;whiteSpace=wrap;rounded=0;" parent="1" vertex="1">
          <mxGeometry x="240" y="460" width="90" height="20" as="geometry" />
        </mxCell>
        <mxCell id="l-pNRI6O7NmP5uDZJ6IB-12" value="Vulnerabilties" style="text;html=1;align=center;verticalAlign=middle;whiteSpace=wrap;rounded=0;" parent="1" vertex="1">
          <mxGeometry x="239" y="386" width="40" height="20" as="geometry" />
        </mxCell>
        <mxCell id="vkyj5gBKQq1HIpFrXU04-3" value="" style="rhombus;whiteSpace=wrap;html=1;" vertex="1" parent="1">
          <mxGeometry x="200" y="260" width="20" height="40" as="geometry" />
        </mxCell>
        <mxCell id="vkyj5gBKQq1HIpFrXU04-6" value="&lt;div&gt;Topology&amp;nbsp;&lt;/div&gt;" style="text;html=1;align=center;verticalAlign=middle;whiteSpace=wrap;rounded=0;" vertex="1" parent="1">
          <mxGeometry x="180" y="270" width="140" height="20" as="geometry" />
        </mxCell>
        <mxCell id="vkyj5gBKQq1HIpFrXU04-7" value="" style="rhombus;whiteSpace=wrap;html=1;" vertex="1" parent="1">
          <mxGeometry x="200" y="325" width="20" height="40" as="geometry" />
        </mxCell>
        <mxCell id="vkyj5gBKQq1HIpFrXU04-8" value="&lt;font style=&quot;font-size: 12px;&quot;&gt;how many open ports?&lt;/font&gt;" style="html=1;verticalAlign=bottom;endArrow=block;edgeStyle=elbowEdgeStyle;elbow=vertical;curved=0;rounded=0;" edge="1" parent="1">
          <mxGeometry x="0.0857" y="9" relative="1" as="geometry">
            <mxPoint x="220" y="332" as="sourcePoint" />
            <Array as="points">
              <mxPoint x="245" y="332" />
            </Array>
            <mxPoint y="1" as="offset" />
            <mxPoint x="570" y="332" as="targetPoint" />
          </mxGeometry>
        </mxCell>
        <mxCell id="vkyj5gBKQq1HIpFrXU04-11" value="" style="rhombus;whiteSpace=wrap;html=1;" vertex="1" parent="1">
          <mxGeometry x="200" y="390" width="20" height="40" as="geometry" />
        </mxCell>
        <mxCell id="vkyj5gBKQq1HIpFrXU04-12" value="&lt;font style=&quot;font-size: 12px;&quot;&gt;can we find vulnerabilties?&lt;/font&gt;" style="html=1;verticalAlign=bottom;endArrow=block;edgeStyle=elbowEdgeStyle;elbow=vertical;curved=0;rounded=0;" edge="1" parent="1">
          <mxGeometry x="-0.0833" y="10" relative="1" as="geometry">
            <mxPoint x="220" y="409.5" as="sourcePoint" />
            <Array as="points">
              <mxPoint x="660" y="409.5" />
              <mxPoint x="670" y="419.5" />
              <mxPoint x="245" y="429.5" />
            </Array>
            <mxPoint y="1" as="offset" />
            <mxPoint x="700" y="409.5" as="targetPoint" />
          </mxGeometry>
        </mxCell>
        <mxCell id="vkyj5gBKQq1HIpFrXU04-17" value="" style="rhombus;whiteSpace=wrap;html=1;" vertex="1" parent="1">
          <mxGeometry x="200" y="450" width="20" height="40" as="geometry" />
        </mxCell>
        <mxCell id="vkyj5gBKQq1HIpFrXU04-21" value="&lt;span style=&quot;font-size: 12px;&quot;&gt;Is Exploitable?&lt;/span&gt;" style="html=1;verticalAlign=bottom;endArrow=block;edgeStyle=elbowEdgeStyle;elbow=vertical;curved=0;rounded=0;" edge="1" parent="1">
          <mxGeometry x="-0.0784" relative="1" as="geometry">
            <mxPoint x="360" y="479" as="sourcePoint" />
            <Array as="points">
              <mxPoint x="360" y="479" />
              <mxPoint x="651" y="489" />
              <mxPoint x="661" y="499" />
              <mxPoint x="236" y="509" />
            </Array>
            <mxPoint as="offset" />
            <mxPoint x="810" y="479" as="targetPoint" />
          </mxGeometry>
        </mxCell>
        <mxCell id="vkyj5gBKQq1HIpFrXU04-22" value="&lt;font style=&quot;font-size: 12px;&quot;&gt;return secure if can&#39;t exploit&lt;/font&gt;" style="html=1;verticalAlign=bottom;endArrow=open;dashed=1;endSize=8;edgeStyle=elbowEdgeStyle;elbow=vertical;curved=0;rounded=0;" edge="1" parent="1">
          <mxGeometry x="0.0847" y="20" relative="1" as="geometry">
            <mxPoint x="220" y="510" as="targetPoint" />
            <Array as="points">
              <mxPoint x="730" y="510" />
              <mxPoint x="670" y="460" />
              <mxPoint x="550" y="540" />
            </Array>
            <mxPoint x="820" y="510" as="sourcePoint" />
            <mxPoint as="offset" />
          </mxGeometry>
        </mxCell>
        <mxCell id="vkyj5gBKQq1HIpFrXU04-23" value="&lt;font style=&quot;font-size: 12px;&quot;&gt;return network topo&lt;/font&gt;" style="html=1;verticalAlign=bottom;endArrow=open;dashed=1;endSize=8;edgeStyle=elbowEdgeStyle;elbow=vertical;curved=0;rounded=0;" edge="1" parent="1">
          <mxGeometry y="-10" relative="1" as="geometry">
            <mxPoint x="82" y="270" as="targetPoint" />
            <Array as="points">
              <mxPoint x="132" y="270" />
              <mxPoint x="122.5" y="229.5" />
              <mxPoint x="2.5" y="309.5" />
            </Array>
            <mxPoint x="190" y="270" as="sourcePoint" />
            <mxPoint as="offset" />
          </mxGeometry>
        </mxCell>
        <mxCell id="vkyj5gBKQq1HIpFrXU04-28" value="&lt;font style=&quot;font-size: 12px;&quot;&gt;Return/Display Exploit Network Info&lt;/font&gt;" style="html=1;verticalAlign=bottom;endArrow=open;dashed=1;endSize=8;edgeStyle=elbowEdgeStyle;elbow=vertical;curved=0;rounded=0;" edge="1" parent="1">
          <mxGeometry x="0.0685" y="20" relative="1" as="geometry">
            <mxPoint x="99" y="577" as="targetPoint" />
            <Array as="points">
              <mxPoint x="739" y="577" />
              <mxPoint x="679" y="527" />
              <mxPoint x="559" y="607" />
            </Array>
            <mxPoint x="829" y="577" as="sourcePoint" />
            <mxPoint as="offset" />
          </mxGeometry>
        </mxCell>
        <mxCell id="vkyj5gBKQq1HIpFrXU04-30" value="&lt;font style=&quot;font-size: 12px;&quot;&gt;return ports&lt;/font&gt;" style="html=1;verticalAlign=bottom;endArrow=open;dashed=1;endSize=8;edgeStyle=elbowEdgeStyle;elbow=vertical;curved=0;rounded=0;" edge="1" parent="1">
          <mxGeometry relative="1" as="geometry">
            <mxPoint x="232" y="358" as="targetPoint" />
            <Array as="points">
              <mxPoint x="512" y="358" />
              <mxPoint x="452" y="308" />
              <mxPoint x="332" y="388" />
            </Array>
            <mxPoint x="587" y="358" as="sourcePoint" />
          </mxGeometry>
        </mxCell>
        <mxCell id="vkyj5gBKQq1HIpFrXU04-31" value="&lt;font style=&quot;font-size: 12px;&quot;&gt;return vulnerability(ies)&lt;/font&gt;" style="html=1;verticalAlign=bottom;endArrow=open;dashed=1;endSize=8;edgeStyle=elbowEdgeStyle;elbow=vertical;curved=0;rounded=0;" edge="1" parent="1">
          <mxGeometry relative="1" as="geometry">
            <mxPoint x="350" y="440" as="targetPoint" />
            <Array as="points">
              <mxPoint x="630" y="440" />
              <mxPoint x="570" y="390" />
              <mxPoint x="450" y="470" />
            </Array>
            <mxPoint x="705" y="440" as="sourcePoint" />
          </mxGeometry>
        </mxCell>
      </root>
    </mxGraphModel>
  </diagram>
</mxfile>
